<svg version="1.1" xmlns="http://www.w3.org/2000/svg" xmlns:xlink="http://www.w3.org/1999/xlink" width="118.4756" height="104.1234" viewBox="0,0,118.4756,104.1234"><g transform="translate(-179.9997,-126.9997)"><g data-paper-data="{&quot;isPaintingLayer&quot;:true}" stroke-linecap="butt" stroke-linejoin="miter" stroke-miterlimit="10" stroke-dasharray="" stroke-dashoffset="0" style="mix-blend-mode: normal"><g data-paper-data="{&quot;index&quot;:null}"><path d="M216.6273,230.3356l28.9056,-30.7348" fill="none" fill-rule="evenodd" stroke="#ffdb5d" stroke-width="1.575"/><path d="M203.5332,230.3356c3.2298,0 3.2298,-3.1523 6.4596,-3.1523c3.2287,0 3.2287,3.1523 6.4569,3.1523c3.2314,0 3.2314,-3.1523 6.4622,-3.1523c3.2308,0 3.2308,3.1523 6.4616,3.1523" fill="none" fill-rule="evenodd" stroke="#ffdb5d" stroke-width="1.575"/><path d="M246.2071,202.2277l-12.2765,12.3554c-1.1526,1.16 -3.1233,0.3383 -3.1233,-1.3025v-11.841z" fill="#fff4e3" fill-rule="nonzero" stroke="none" stroke-width="1"/></g><g data-paper-data="{&quot;index&quot;:null}"><path d="M252.4732,211.1592v19.1764" fill="none" fill-rule="evenodd" stroke="#ffdb5d" stroke-width="1.575"/><path d="M239.3789,230.3356c3.2298,0 3.2298,-3.1523 6.4596,-3.1523c3.2287,0 3.2287,3.1523 6.4575,3.1523c3.2308,0 3.2308,-3.1523 6.4616,-3.1523c3.2308,0 3.2308,3.1523 6.4617,3.1523" fill="none" fill-rule="evenodd" stroke="#ffdb5d" stroke-width="1.575"/><path d="M254.2333,201.4396v11.841c0,1.6408 -1.9707,2.4625 -3.1233,1.3025l-12.2765,-12.3554z" fill="#fff4e3" fill-rule="nonzero" stroke="none" stroke-width="1"/></g><g data-paper-data="{&quot;index&quot;:null}" fill-rule="nonzero" stroke="none" stroke-width="1"><path d="M291.471,157.9208c0,26.8879 -21.6579,48.6849 -48.3741,48.6849c-26.7168,0 -48.3747,-21.797 -48.3747,-48.6849z" fill="#fff4e3"/><path d="M278.6163,170.8583l-18.7512,-1.4827c-0.2406,-1.6239 -0.368,-3.2841 -0.368,-4.9753c0,-18.4735 14.8799,-33.4494 33.2359,-33.4494c1.861,0 3.6839,0.1618 5.4614,0.4576l-10.7689,10.838h10.8754l-8.5696,8.6252h8.744z" fill="#fff4e3"/><path d="M196.8756,136.6208c18.0099,0 27.1454,21.5406 27.1454,21.5406l-28.4505,8.8658l-2.5448,-17.5346z" fill="#fff4e3"/><path d="M272.896,157.9208l-20.4896,13.3268h18.6985c-4.9645,10.5491 -15.6399,17.8456 -28.0083,17.8456c-17.1063,0 -30.9734,-13.9562 -30.9734,-31.1724z" fill="#f3e4ce"/></g><g data-paper-data="{&quot;index&quot;:null}" fill-rule="nonzero" stroke="none" stroke-width="1"><path d="M183.0093,153.121c0,-3.654 2.9432,-6.6166 6.5744,-6.6166c3.6307,0 6.5739,2.9626 6.5739,6.6166c0,3.6541 -2.9432,6.6167 -6.5739,6.6167c-3.6312,0 -6.5744,-2.9626 -6.5744,-6.6167" fill="#ce2235"/><path d="M184.5748,133.9169c-0.0971,-0.4366 -0.1242,-0.8995 -0.0694,-1.377c0.2088,-1.8121 1.6507,-3.3073 3.4459,-3.5611c1.8161,-0.2569 3.4386,0.6978 4.1966,2.1746c0,-0.0221 -0.0032,-0.0436 -0.0032,-0.0657c0,-2.2581 1.8188,-4.088 4.0619,-4.088c1.5457,0 2.8868,0.8701 3.5723,2.1494c0.2349,0.4387 0.748,0.612 1.199,0.4071c0.5095,-0.2301 1.0739,-0.3583 1.669,-0.3567c2.146,0.0068 3.9726,1.7858 4.0467,3.9435c0.0762,2.2229 -1.6115,4.0612 -3.7627,4.2183l-0.1092,-0.0016h-3.8499c-0.3482,0 -6.7602,3.4639 -9.8,3.7507c-0.7126,1.584 -2.3945,2.6316 -4.2864,2.3642c-1.7785,-0.2506 -3.2125,-1.7138 -3.4406,-3.5064c-0.2344,-1.8435 0.7527,-3.4822 2.2577,-4.2161c0.6761,-0.3295 1.0363,-1.0976 0.8723,-1.8352" fill="#ce2235"/><path d="M193.5231,131.4666l-1.0503,0.6924l-1.6888,-0.1297c0,0 -1.2199,-3.1318 -0.2803,-2.5818c0.9396,0.5501 1.7112,0.2391 2.3747,-0.7003c0.663,-0.9399 0.2579,0.1109 0.2579,0.1109z" fill="#ce2235"/><path d="M179.9997,147.6866c1.6356,-2.8244 4.6659,-4.7284 8.1484,-4.7284c3.4824,0 6.5128,1.904 8.1483,4.7284z" fill="#ffdb5d"/><path d="M187.4139,143.7678c0,-4.9748 4.0076,-9.0082 8.9506,-9.0082c4.9436,0 8.9507,4.0334 8.9507,9.0082c0,4.9753 -4.0071,9.0082 -8.9507,9.0082c-4.943,0 -8.9506,-4.0329 -8.9506,-9.0082" fill="#e8441d"/><path d="M192.298,143.7678c0,-2.2602 1.8208,-4.0927 4.0665,-4.0927c2.2463,0 4.0671,1.8325 4.0671,4.0927c0,2.2607 -1.8208,4.0932 -4.0671,4.0932c-2.2457,0 -4.0665,-1.8325 -4.0665,-4.0932" fill="#fff4e3"/><path d="M193.7108,143.7678c0,-1.4753 1.1882,-2.671 2.6535,-2.671c1.4664,0 2.654,1.1957 2.654,2.671c0,1.4758 -1.1876,2.671 -2.654,2.671c-1.4653,0 -2.6535,-1.1952 -2.6535,-2.671" fill="#17242d"/></g></g></g></svg>