<svg version="1.1" xmlns="http://www.w3.org/2000/svg" xmlns:xlink="http://www.w3.org/1999/xlink" width="112.6248" height="104.8855" viewBox="0,0,112.6248,104.8855"><g transform="translate(-184,-127.9067)"><g data-paper-data="{&quot;isPaintingLayer&quot;:true}" stroke-linejoin="miter" stroke-miterlimit="10" stroke-dasharray="" stroke-dashoffset="0" style="mix-blend-mode: normal"><g data-paper-data="{&quot;index&quot;:null}" stroke-linecap="butt"><path d="M237.2516,200.9686l29.1028,31.0361" fill="none" fill-rule="evenodd" stroke="#ffdb5d" stroke-width="1.575"/><path d="M253.5206,232.0047c3.2529,0 3.2529,-3.1829 6.5073,-3.1829c3.2514,0 3.2514,3.1829 6.5058,3.1829c3.2499,0 3.2499,-3.1829 6.5013,-3.1829c3.2513,0 3.2513,3.1829 6.5027,3.1829" fill="none" fill-rule="evenodd" stroke="#ffdb5d" stroke-width="1.575"/><path d="M252.0772,202.8253v11.9569c0,1.6577 -1.9827,2.4866 -3.1444,1.3156l-12.3592,-12.4768z" fill="#fff4e3" fill-rule="nonzero" stroke="none" stroke-width="1"/></g><g data-paper-data="{&quot;index&quot;:null}" stroke-linecap="butt"><path d="M230.2743,231.3535v-19.5824" fill="none" fill-rule="evenodd" stroke="#ffdb5d" stroke-width="1.575"/><path d="M217.442,231.9956c3.2529,0 3.2529,-3.1828 6.5058,-3.1828c3.2529,0 3.2529,3.1828 6.5057,3.1828c3.2499,0 3.2499,-3.1828 6.5013,-3.1828c3.2514,0 3.2514,3.1828 6.5043,3.1828" fill="none" fill-rule="evenodd" stroke="#ffdb5d" stroke-width="1.575"/><path d="M244.0075,203.612l-12.3607,12.4768c-1.1601,1.171 -3.1444,0.3421 -3.1444,-1.3156v-11.9569z" fill="#fff4e3" fill-rule="nonzero" stroke="none" stroke-width="1"/></g><g data-paper-data="{&quot;index&quot;:null}" fill-rule="nonzero" stroke="none" stroke-width="1" stroke-linecap="butt"><path d="M288.4602,158.9056c0,27.1524 -21.806,49.1627 -48.7045,49.1627c-26.8985,0 -48.7045,-22.0103 -48.7045,-49.1627z" fill="#fff4e3"/><path d="M184,151.7878h8.8035l-8.6287,-8.7107h10.9504l-10.8435,-10.9441c1.79,-0.2984 3.6266,-0.4627 5.4994,-0.4627c18.4808,0 33.4615,15.1232 33.4615,33.7789c0,1.7074 -0.1265,3.3833 -0.3691,5.0229l-18.88,1.498z" fill="#fff4e3"/><path d="M290.1673,150.3938l-2.5614,17.7078l-28.6447,-8.9534c0,0 9.1982,-21.7526 27.3309,-21.7526z" fill="#fff4e3"/><path d="M270.9392,158.9056c0,17.3852 -13.9608,31.4791 -31.1835,31.4791c-12.4526,0 -23.2012,-7.3694 -28.1988,-18.0212h18.8258l-20.6292,-13.4579z" fill="#f3e4ce"/></g><g data-paper-data="{&quot;index&quot;:null}"><path d="M295.7495,144.6324c0,5.0245 -4.0349,9.0965 -9.0114,9.0965c-4.978,0 -9.0129,-4.072 -9.0129,-9.0965c0,-5.0245 4.0349,-9.0965 9.0129,-9.0965c4.9765,0 9.0114,4.072 9.0114,9.0965" fill="#e8441d" fill-rule="nonzero" stroke="none" stroke-width="1" stroke-linecap="butt"/><path d="M293.2861,154.077c0,3.6893 -2.9636,6.6823 -6.6203,6.6823c-3.6552,0 -6.6173,-2.993 -6.6173,-6.6823c0,-3.6892 2.9621,-6.6822 6.6173,-6.6822c3.6567,0 6.6203,2.993 6.6203,6.6822" fill="#ce2235" fill-rule="nonzero" stroke="none" stroke-width="1" stroke-linecap="butt"/><path d="M284.9843,144.6324c0,2.2832 -1.8321,4.1323 -4.0936,4.1323c-2.2615,0 -4.0951,-1.8491 -4.0951,-4.1323c0,-2.2832 1.8336,-4.1338 4.0951,-4.1338c2.2615,0 4.0936,1.8506 4.0936,4.1338" fill="#fff4e3" fill-rule="nonzero" stroke="none" stroke-width="1" stroke-linecap="butt"/><path d="M283.562,144.6324c0,1.4905 -1.1963,2.6961 -2.6713,2.6961c-1.4765,0 -2.6728,-1.2056 -2.6728,-2.6961c0,-1.4905 1.1963,-2.6976 2.6728,-2.6976c1.475,0 2.6713,1.2071 2.6713,2.6976" fill="#17242d" fill-rule="nonzero" stroke="none" stroke-width="1" stroke-linecap="butt"/><path d="M296.6248,144.6324c0,2.2832 -1.8336,4.1323 -4.0951,4.1323c-2.2615,0 -4.0951,-1.8491 -4.0951,-4.1323c0,-2.2832 1.8336,-4.1338 4.0951,-4.1338c2.2615,0 4.0951,1.8506 4.0951,4.1338" fill="#fff4e3" fill-rule="nonzero" stroke="none" stroke-width="1" stroke-linecap="butt"/><path d="M295.201,144.6324c0,1.4905 -1.1963,2.6961 -2.6713,2.6961c-1.4765,0 -2.6728,-1.2056 -2.6728,-2.6961c0,-1.4905 1.1963,-2.6976 2.6728,-2.6976c1.475,0 2.6713,1.2071 2.6713,2.6976" fill="#17242d" fill-rule="nonzero" stroke="none" stroke-width="1" stroke-linecap="butt"/><path d="M286.726,128.4317v7.9451" fill="none" fill-rule="evenodd" stroke="#ce2235" stroke-width="1.05" stroke-linecap="round"/><path d="M283.5515,148.5567l1.5714,-3.7435c0.6027,-1.4317 2.6111,-1.4347 3.2168,-0.0045l1.5835,3.748z" fill="#ffdb5d" fill-rule="nonzero" stroke="none" stroke-width="1" stroke-linecap="butt"/></g></g></g></svg>